<svg width="45" height="39" viewBox="0 0 45 39" fill="none" xmlns="http://www.w3.org/2000/svg">
<path d="M27.967 0.879035C20.242 0.875035 12.182 2.61504 4.04701 4.87204C3.01401 5.08004 2.00601 5.75604 1.47301 6.59204C0.983007 7.38004 0.805007 8.17104 0.652007 9.00004C-0.137993 13.428 -0.0419928 17.776 0.122007 22.594C0.158007 23.697 0.322007 25.004 0.837007 25.799C1.37501 26.602 2.29701 27.112 3.39801 27.279C4.80461 27.4854 6.21563 27.6604 7.63001 27.804L7.31801 36.502C7.27001 37.194 7.60801 37.769 8.02801 38.1C8.40401 38.386 8.82301 38.513 9.25301 38.545C10.113 38.61 11.122 38.242 11.623 37.288C13.818 33.064 15.195 31.199 17.94 28.393C25.098 28.569 31.347 28.171 38.422 27.648C40.923 27.583 42.64 25.538 43.094 23.905C44.451 19.673 44.662 14.449 44.806 9.16804C44.867 7.07504 44.141 5.02004 42.856 3.93404C41.634 2.94304 40.154 2.58404 38.798 2.21604C35.031 1.36304 31.263 0.905035 27.967 0.879035ZM38.257 4.18904C39.615 4.55804 40.812 4.91304 41.567 5.52604C42.827 6.86504 42.785 7.75604 42.767 9.20104C42.625 14.323 42.379 19.294 41.223 23.061C40.725 24.466 39.857 25.466 38.217 25.617C31.009 26.15 24.755 26.562 17.51 26.356C17.3689 26.3515 17.2284 26.376 17.0972 26.4279C16.966 26.4799 16.8468 26.5582 16.747 26.658C13.703 29.732 12.146 31.868 9.82601 36.334C9.77201 36.436 9.65501 36.498 9.51101 36.509C9.41401 36.504 9.37501 36.429 9.36901 36.361L9.68301 26.929C9.70201 26.42 9.28201 25.934 8.77601 25.879C7.08412 25.7174 5.39686 25.5107 3.71601 25.259C2.99001 25.148 2.72201 24.949 2.52301 24.653C2.17701 23.828 2.18501 23.318 2.15801 22.525C1.99601 17.75 1.91601 13.577 2.64901 9.42504C2.71701 8.81104 2.94701 8.18304 3.19101 7.65804C3.59501 7.02604 4.21401 6.93304 4.83501 6.76104C12.791 4.56404 20.575 2.92104 27.903 2.91604C31.495 3.04604 35.267 3.40604 38.257 4.18904ZM10.778 12.279C9.68201 13.592 9.79101 15.375 10.638 16.569C11.08 17.194 11.77 17.697 12.61 17.811C13.701 17.901 14.393 17.459 15.14 16.951C16.493 15.775 16.63 13.723 15.601 12.241C15.077 11.486 14.239 11.033 13.383 11.001C12.211 11.013 11.415 11.536 10.778 12.278V12.279ZM22.634 11.207C21.542 11.242 20.659 11.998 20.12 12.814C19.503 13.747 19.143 14.915 19.642 16.06C20.602 18.263 23.919 18.236 25.242 15.997C25.852 14.965 25.696 13.792 25.242 12.941C24.79 12.091 24.106 11.398 23.111 11.239C22.9534 11.2131 22.7937 11.2024 22.634 11.207ZM32.259 11.414C31.919 11.406 31.569 11.438 31.241 11.525C29.929 11.875 28.812 13.229 28.981 14.962C29.067 15.834 29.468 16.684 30.191 17.27C30.914 17.855 31.964 18.117 33.071 17.89C34.343 17.63 35.131 16.605 35.394 15.615C35.657 14.625 35.591 13.616 34.98 12.798C34.6621 12.3753 34.2518 12.0308 33.7803 11.791C33.3089 11.5511 32.7889 11.4222 32.26 11.414H32.259ZM13.294 13.037C13.539 13.039 13.732 13.117 13.931 13.403C14.376 14.045 14.252 15.018 13.803 15.408C13.356 15.798 13.077 15.832 12.881 15.806C12.685 15.779 12.486 15.644 12.308 15.392C11.968 14.912 11.868 14.136 12.315 13.582C12.553 13.266 12.99 13.069 13.295 13.037H13.294ZM22.777 13.26C22.815 13.266 23.241 13.513 23.445 13.896C23.649 14.279 23.687 14.635 23.493 14.962C22.916 15.938 21.689 15.674 21.503 15.249C21.433 15.087 21.486 14.436 21.823 13.929C22.158 13.42 22.58 13.229 22.777 13.259V13.26ZM33.341 14.008C33.403 14.091 33.554 14.648 33.437 15.09C33.319 15.532 33.127 15.805 32.657 15.901C32.055 16.025 31.717 15.901 31.464 15.694C31.21 15.489 31.039 15.142 31.002 14.771C30.912 13.851 31.242 13.638 31.766 13.498C32.376 13.348 33.066 13.61 33.341 14.008Z" fill="#FF04B4"/>
</svg>
